<svg xmlns="http://www.w3.org/2000/svg" version="1.1" xmlns:xlink="http://www.w3.org/1999/xlink"
     xmlns:svgjs="http://svgjs.dev/svgjs"
     width="194" height="46" viewBox="0 0 2000 247">
    <g transform="matrix(1,0,0,1,-1.2121212121213603,-0.6846957804302463)">
        <svg viewBox="0 0 396 49" data-background-color="#ffffff" preserveAspectRatio="xMidYMid meet" height="247"
             width="2000" xmlns="http://www.w3.org/2000/svg" xmlns:xlink="http://www.w3.org/1999/xlink">
            <g id="tight-bounds" transform="matrix(1,0,0,1,0.24000000000003752,0.13583033700842861)">
                <svg viewBox="0 0 395.5199999999999 48.72833932598312" height="48.72833932598312"
                     width="395.5199999999999">
                    <g>
                        <svg viewBox="0 0 482.9116324368597 59.49504927651633" height="48.72833932598312"
                             width="395.5199999999999">
                            <g></g>
                            <g transform="matrix(1,0,0,1,87.39163243685972,5.006166421565581)">
                                <svg viewBox="0 0 395.52 49.48271643338517" height="49.48271643338517" width="395.52">
                                    <g id="textblocktransform">
                                        <svg viewBox="0 0 395.52 49.48271643338517" height="49.48271643338517"
                                             width="395.52" id="textblock">
                                            <g>
                                                <svg viewBox="0 0 395.52 49.48271643338517" height="49.48271643338517"
                                                     width="395.52">
                                                    <g transform="matrix(1,0,0,1,0,0)">
                                                        <svg width="395.52" viewBox="1.4 -35.6 289.33000000000004 36.2"
                                                             height="49.48271643338517"
                                                             data-palette-color="url(#be59db4b-0c79-4d8d-9a7b-dc186452a81c)"></svg>
                                                    </g>
                                                </svg>
                                            </g>
                                        </svg>
                                    </g>
                                </svg>
                            </g>
                            <g>
                                <svg viewBox="0 0 59.56586647327801 59.49504927651633" height="59.49504927651633"
                                     width="59.56586647327801">
                                    <g>
                                        <svg xmlns="http://www.w3.org/2000/svg"
                                             xmlns:xlink="http://www.w3.org/1999/xlink" version="1.1" x="0" y="0"
                                             viewBox="5 5.052999942239572 90.00000005776043 89.89300005776043"
                                             enable-background="new 0 0 100 100" xml:space="preserve"
                                             height="59.49504927651633" width="59.56586647327801" class="icon-icon-0"
                                             data-fill-palette-color="accent" id="icon-0"></svg>
                                    </g>
                                </svg>
                            </g>
                        </svg>
                    </g>
                    <defs></defs>
                    <mask id="cf9515c1-2c1b-4e6c-9440-b537f73ed072">
                        <g id="SvgjsG1940">
                            <svg viewBox="0 0 395.5199999999999 48.72833932598312" height="48.72833932598312"
                                 width="395.5199999999999">
                                <g>
                                    <svg viewBox="0 0 482.9116324368597 59.49504927651633" height="48.72833932598312"
                                         width="395.5199999999999">
                                        <g>
                                            <rect width="4.462402434126034" height="59.3792597200622"
                                                  x="71.24754823800585" y="0.05789477822706601" fill="white" opacity="1"
                                                  stroke-width="0" stroke="transparent" fill-opacity="1"
                                                  class="rect-yte-0" rx="1%" id="SvgjsRect1939"
                                                  data-palette-color="url(#be59db4b-0c79-4d8d-9a7b-dc186452a81c)"></rect>
                                        </g>
                                        <g transform="matrix(1,0,0,1,87.39163243685972,5.006166421565581)">
                                            <svg viewBox="0 0 395.52 49.48271643338517" height="49.48271643338517"
                                                 width="395.52">
                                                <g id="SvgjsG1938">
                                                    <svg viewBox="0 0 395.52 49.48271643338517"
                                                         height="49.48271643338517" width="395.52" id="SvgjsSvg1937">
                                                        <g>
                                                            <svg viewBox="0 0 395.52 49.48271643338517"
                                                                 height="49.48271643338517" width="395.52">
                                                                <g transform="matrix(1,0,0,1,0,0)">
                                                                    <svg width="395.52"
                                                                         viewBox="1.4 -35.6 289.33000000000004 36.2"
                                                                         height="49.48271643338517"
                                                                         data-palette-color="url(#be59db4b-0c79-4d8d-9a7b-dc186452a81c)">
                                                                        <path
                                                                            d="M15.65 0.6Q11.5 0.6 7.63-0.53 3.75-1.65 1.4-3.45L1.4-3.45 4.15-9.55Q6.4-7.9 9.5-6.9 12.6-5.9 15.7-5.9L15.7-5.9Q19.15-5.9 20.8-6.93 22.45-7.95 22.45-9.65L22.45-9.65Q22.45-10.9 21.48-11.73 20.5-12.55 18.98-13.05 17.45-13.55 14.85-14.15L14.85-14.15Q10.85-15.1 8.3-16.05 5.75-17 3.93-19.1 2.1-21.2 2.1-24.7L2.1-24.7Q2.1-27.75 3.75-30.23 5.4-32.7 8.72-34.15 12.05-35.6 16.85-35.6L16.85-35.6Q20.2-35.6 23.4-34.8 26.6-34 29-32.5L29-32.5 26.5-26.35Q21.65-29.1 16.8-29.1L16.8-29.1Q13.4-29.1 11.78-28 10.15-26.9 10.15-25.1L10.15-25.1Q10.15-23.3 12.03-22.43 13.9-21.55 17.75-20.7L17.75-20.7Q21.75-19.75 24.3-18.8 26.85-17.85 28.68-15.8 30.5-13.75 30.5-10.25L30.5-10.25Q30.5-7.25 28.83-4.78 27.15-2.3 23.8-0.85 20.45 0.6 15.65 0.6L15.65 0.6ZM36.05 0L36.05-35 44.15-35 44.15 0 36.05 0ZM67.59-35Q72.25-35 75.67-33.45 79.09-31.9 80.94-29.05 82.8-26.2 82.8-22.3L82.8-22.3Q82.8-18.45 80.94-15.58 79.09-12.7 75.67-11.18 72.25-9.65 67.59-9.65L67.59-9.65 60.55-9.65 60.55 0 52.45 0 52.45-35 67.59-35ZM67.15-16.25Q70.8-16.25 72.7-17.82 74.59-19.4 74.59-22.3L74.59-22.3Q74.59-25.25 72.7-26.83 70.8-28.4 67.15-28.4L67.15-28.4 60.55-28.4 60.55-16.25 67.15-16.25ZM96.59-6.5L115.64-6.5 115.64 0 88.54 0 88.54-35 114.99-35 114.99-28.5 96.59-28.5 96.59-20.9 112.84-20.9 112.84-14.6 96.59-14.6 96.59-6.5ZM129.34 0L129.34-28.4 118.14-28.4 118.14-35 148.64-35 148.64-28.4 137.44-28.4 137.44 0 129.34 0ZM177.39 0L174.29-7.5 158.04-7.5 154.94 0 146.64 0 162.24-35 170.24-35 185.89 0 177.39 0ZM160.64-13.65L171.74-13.65 166.19-27.05 160.64-13.65ZM189.54 0L189.54-35 205.44-35Q211.14-35 215.51-32.83 219.89-30.65 222.31-26.7 224.74-22.75 224.74-17.5L224.74-17.5Q224.74-12.25 222.31-8.3 219.89-4.35 215.51-2.18 211.14 0 205.44 0L205.44 0 189.54 0ZM197.64-6.65L205.04-6.65Q210.29-6.65 213.41-9.58 216.54-12.5 216.54-17.5L216.54-17.5Q216.54-22.5 213.41-25.43 210.29-28.35 205.04-28.35L205.04-28.35 197.64-28.35 197.64-6.65ZM238.88-6.5L257.93-6.5 257.93 0 230.83 0 230.83-35 257.28-35 257.28-28.5 238.88-28.5 238.88-20.9 255.13-20.9 255.13-14.6 238.88-14.6 238.88-6.5ZM275.88 0.6Q271.73 0.6 267.86-0.53 263.98-1.65 261.63-3.45L261.63-3.45 264.38-9.55Q266.63-7.9 269.73-6.9 272.83-5.9 275.93-5.9L275.93-5.9Q279.38-5.9 281.03-6.93 282.68-7.95 282.68-9.65L282.68-9.65Q282.68-10.9 281.71-11.73 280.73-12.55 279.21-13.05 277.68-13.55 275.08-14.15L275.08-14.15Q271.08-15.1 268.53-16.05 265.98-17 264.16-19.1 262.33-21.2 262.33-24.7L262.33-24.7Q262.33-27.75 263.98-30.23 265.63-32.7 268.96-34.15 272.28-35.6 277.08-35.6L277.08-35.6Q280.43-35.6 283.63-34.8 286.83-34 289.23-32.5L289.23-32.5 286.73-26.35Q281.88-29.1 277.03-29.1L277.03-29.1Q273.63-29.1 272.01-28 270.38-26.9 270.38-25.1L270.38-25.1Q270.38-23.3 272.26-22.43 274.13-21.55 277.98-20.7L277.98-20.7Q281.98-19.75 284.53-18.8 287.08-17.85 288.91-15.8 290.73-13.75 290.73-10.25L290.73-10.25Q290.73-7.25 289.06-4.78 287.38-2.3 284.03-0.85 280.68 0.6 275.88 0.6L275.88 0.6Z"
                                                                            opacity="1" transform="matrix(1,0,0,1,0,0)"
                                                                            fill="white" class="wordmark-text-0"
                                                                            id="SvgjsPath1936"></path>
                                                                    </svg>
                                                                </g>
                                                            </svg>
                                                        </g>
                                                    </svg>
                                                </g>
                                            </svg>
                                        </g>
                                        <g>
                                            <svg viewBox="0 0 59.56586647327801 59.49504927651633"
                                                 height="59.49504927651633" width="59.56586647327801">
                                                <g>
                                                    <svg xmlns="http://www.w3.org/2000/svg"
                                                         xmlns:xlink="http://www.w3.org/1999/xlink" version="1.1" x="0"
                                                         y="0"
                                                         viewBox="5 5.052999942239572 90.00000005776043 89.89300005776043"
                                                         enable-background="new 0 0 100 100" xml:space="preserve"
                                                         height="59.49504927651633" width="59.56586647327801"
                                                         class="icon-icon-0" data-fill-palette-color="accent"
                                                         id="SvgjsSvg1935"><g fill="black"><path d="M22.749 91.928A3.02 3.02 0 0 1 19.731 94.946H8.018A3.02 3.02 0 0 1 5 91.928V80.215A3.02 3.02 0 0 1 8.018 77.197H19.731A3.02 3.02 0 0 1 22.749 80.215z" fill="black"></path><path
                                                        d="M95 65.807A8.67 8.67 0 0 1 86.329 74.478H33.946A8.67 8.67 0 0 1 25.275 65.807V13.724A8.67 8.67 0 0 1 33.946 5.053H86.329A8.67 8.67 0 0 1 95 13.724zM84.347 17.733A2.026 2.026 0 0 0 82.321 15.707H37.955A2.026 2.026 0 0 0 35.929 17.733V61.798C35.929 62.917 36.836 63.824 37.955 63.824H82.321A2.026 2.026 0 0 0 84.347 61.798z"
                                                        fill="black"></path></g></svg>
                                                </g>
                                            </svg>
                                        </g>
                                    </svg>
                                </g>
                                <defs>
                                    <mask></mask>
                                </defs>
                            </svg>
                            <rect width="395.5199999999999" height="48.72833932598312" fill="black" stroke="none"
                                  visibility="hidden"></rect>
                        </g>
                    </mask>
                    <linearGradient x1="0" x2="1" y1="0.578" y2="0.595" id="be59db4b-0c79-4d8d-9a7b-dc186452a81c">
                        <stop stop-color="#6ee2f5" offset="0"></stop>
                        <stop stop-color="#6454f0" offset="1"></stop>
                    </linearGradient>
                    <rect width="395.5199999999999" height="48.72833932598312"
                          fill="url(#be59db4b-0c79-4d8d-9a7b-dc186452a81c)"
                          mask="url(#cf9515c1-2c1b-4e6c-9440-b537f73ed072)" data-fill-palette-color="primary"></rect>
                    <mask id="5fd88051-7346-474c-afa6-fb1f6acd9c92">
                        <g id="SvgjsG1950">
                            <svg viewBox="0 0 395.5199999999999 48.72833932598312" height="48.72833932598312"
                                 width="395.5199999999999">
                                <g>
                                    <svg viewBox="0 0 482.9116324368597 59.49504927651633" height="48.72833932598312"
                                         width="395.5199999999999">
                                        <g></g>
                                        <g transform="matrix(1,0,0,1,87.39163243685972,5.006166421565581)">
                                            <svg viewBox="0 0 395.52 49.48271643338517" height="49.48271643338517"
                                                 width="395.52">
                                                <g id="SvgjsG1949">
                                                    <svg viewBox="0 0 395.52 49.48271643338517"
                                                         height="49.48271643338517" width="395.52" id="SvgjsSvg1948">
                                                        <g>
                                                            <svg viewBox="0 0 395.52 49.48271643338517"
                                                                 height="49.48271643338517" width="395.52">
                                                                <g transform="matrix(1,0,0,1,0,0)">
                                                                    <svg width="395.52"
                                                                         viewBox="1.4 -35.6 289.33000000000004 36.2"
                                                                         height="49.48271643338517"
                                                                         data-palette-color="url(#be59db4b-0c79-4d8d-9a7b-dc186452a81c)"></svg>
                                                                </g>
                                                            </svg>
                                                        </g>
                                                    </svg>
                                                </g>
                                            </svg>
                                        </g>
                                        <g>
                                            <svg viewBox="0 0 59.56586647327801 59.49504927651633"
                                                 height="59.49504927651633" width="59.56586647327801">
                                                <g>
                                                    <svg xmlns="http://www.w3.org/2000/svg"
                                                         xmlns:xlink="http://www.w3.org/1999/xlink" version="1.1" x="0"
                                                         y="0"
                                                         viewBox="5 5.052999942239572 90.00000005776043 89.89300005776043"
                                                         enable-background="new 0 0 100 100" xml:space="preserve"
                                                         height="59.49504927651633" width="59.56586647327801"
                                                         class="icon-icon-0" data-fill-palette-color="accent"
                                                         id="SvgjsSvg1947"><g fill="white"><path d="M22.749 91.928A3.02 3.02 0 0 1 19.731 94.946H8.018A3.02 3.02 0 0 1 5 91.928V80.215A3.02 3.02 0 0 1 8.018 77.197H19.731A3.02 3.02 0 0 1 22.749 80.215z" fill="white"></path><path
                                                        d="M95 65.807A8.67 8.67 0 0 1 86.329 74.478H33.946A8.67 8.67 0 0 1 25.275 65.807V13.724A8.67 8.67 0 0 1 33.946 5.053H86.329A8.67 8.67 0 0 1 95 13.724zM84.347 17.733A2.026 2.026 0 0 0 82.321 15.707H37.955A2.026 2.026 0 0 0 35.929 17.733V61.798C35.929 62.917 36.836 63.824 37.955 63.824H82.321A2.026 2.026 0 0 0 84.347 61.798z"
                                                        fill="white"></path></g></svg>
                                                </g>
                                            </svg>
                                        </g>
                                    </svg>
                                </g>
                                <defs>
                                    <mask></mask>
                                </defs>
                                <mask>
                                    <g id="SvgjsG1946">
                                        <svg viewBox="0 0 395.5199999999999 48.72833932598312"
                                             height="48.72833932598312" width="395.5199999999999">
                                            <g>
                                                <svg viewBox="0 0 482.9116324368597 59.49504927651633"
                                                     height="48.72833932598312" width="395.5199999999999">
                                                    <g>
                                                        <rect width="4.462402434126034" height="59.3792597200622"
                                                              x="71.24754823800585" y="0.05789477822706601" fill="black"
                                                              opacity="1" stroke-width="0" stroke="transparent"
                                                              fill-opacity="1" class="rect-yte-0" rx="1%"
                                                              id="SvgjsRect1945"
                                                              data-palette-color="url(#be59db4b-0c79-4d8d-9a7b-dc186452a81c)"></rect>
                                                    </g>
                                                    <g transform="matrix(1,0,0,1,87.39163243685972,5.006166421565581)">
                                                        <svg viewBox="0 0 395.52 49.48271643338517"
                                                             height="49.48271643338517" width="395.52">
                                                            <g id="SvgjsG1944">
                                                                <svg viewBox="0 0 395.52 49.48271643338517"
                                                                     height="49.48271643338517" width="395.52"
                                                                     id="SvgjsSvg1943">
                                                                    <g>
                                                                        <svg viewBox="0 0 395.52 49.48271643338517"
                                                                             height="49.48271643338517" width="395.52">
                                                                            <g transform="matrix(1,0,0,1,0,0)">
                                                                                <svg width="395.52"
                                                                                     viewBox="1.4 -35.6 289.33000000000004 36.2"
                                                                                     height="49.48271643338517"
                                                                                     data-palette-color="url(#be59db4b-0c79-4d8d-9a7b-dc186452a81c)">
                                                                                    <path
                                                                                        d="M15.65 0.6Q11.5 0.6 7.63-0.53 3.75-1.65 1.4-3.45L1.4-3.45 4.15-9.55Q6.4-7.9 9.5-6.9 12.6-5.9 15.7-5.9L15.7-5.9Q19.15-5.9 20.8-6.93 22.45-7.95 22.45-9.65L22.45-9.65Q22.45-10.9 21.48-11.73 20.5-12.55 18.98-13.05 17.45-13.55 14.85-14.15L14.85-14.15Q10.85-15.1 8.3-16.05 5.75-17 3.93-19.1 2.1-21.2 2.1-24.7L2.1-24.7Q2.1-27.75 3.75-30.23 5.4-32.7 8.72-34.15 12.05-35.6 16.85-35.6L16.85-35.6Q20.2-35.6 23.4-34.8 26.6-34 29-32.5L29-32.5 26.5-26.35Q21.65-29.1 16.8-29.1L16.8-29.1Q13.4-29.1 11.78-28 10.15-26.9 10.15-25.1L10.15-25.1Q10.15-23.3 12.03-22.43 13.9-21.55 17.75-20.7L17.75-20.7Q21.75-19.75 24.3-18.8 26.85-17.85 28.68-15.8 30.5-13.75 30.5-10.25L30.5-10.25Q30.5-7.25 28.83-4.78 27.15-2.3 23.8-0.85 20.45 0.6 15.65 0.6L15.65 0.6ZM36.05 0L36.05-35 44.15-35 44.15 0 36.05 0ZM67.59-35Q72.25-35 75.67-33.45 79.09-31.9 80.94-29.05 82.8-26.2 82.8-22.3L82.8-22.3Q82.8-18.45 80.94-15.58 79.09-12.7 75.67-11.18 72.25-9.65 67.59-9.65L67.59-9.65 60.55-9.65 60.55 0 52.45 0 52.45-35 67.59-35ZM67.15-16.25Q70.8-16.25 72.7-17.82 74.59-19.4 74.59-22.3L74.59-22.3Q74.59-25.25 72.7-26.83 70.8-28.4 67.15-28.4L67.15-28.4 60.55-28.4 60.55-16.25 67.15-16.25ZM96.59-6.5L115.64-6.5 115.64 0 88.54 0 88.54-35 114.99-35 114.99-28.5 96.59-28.5 96.59-20.9 112.84-20.9 112.84-14.6 96.59-14.6 96.59-6.5ZM129.34 0L129.34-28.4 118.14-28.4 118.14-35 148.64-35 148.64-28.4 137.44-28.4 137.44 0 129.34 0ZM177.39 0L174.29-7.5 158.04-7.5 154.94 0 146.64 0 162.24-35 170.24-35 185.89 0 177.39 0ZM160.64-13.65L171.74-13.65 166.19-27.05 160.64-13.65ZM189.54 0L189.54-35 205.44-35Q211.14-35 215.51-32.83 219.89-30.65 222.31-26.7 224.74-22.75 224.74-17.5L224.74-17.5Q224.74-12.25 222.31-8.3 219.89-4.35 215.51-2.18 211.14 0 205.44 0L205.44 0 189.54 0ZM197.64-6.65L205.04-6.65Q210.29-6.65 213.41-9.58 216.54-12.5 216.54-17.5L216.54-17.5Q216.54-22.5 213.41-25.43 210.29-28.35 205.04-28.35L205.04-28.35 197.64-28.35 197.64-6.65ZM238.88-6.5L257.93-6.5 257.93 0 230.83 0 230.83-35 257.28-35 257.28-28.5 238.88-28.5 238.88-20.9 255.13-20.9 255.13-14.6 238.88-14.6 238.88-6.5ZM275.88 0.6Q271.73 0.6 267.86-0.53 263.98-1.65 261.63-3.45L261.63-3.45 264.38-9.55Q266.63-7.9 269.73-6.9 272.83-5.9 275.93-5.9L275.93-5.9Q279.38-5.9 281.03-6.93 282.68-7.95 282.68-9.65L282.68-9.65Q282.68-10.9 281.71-11.73 280.73-12.55 279.21-13.05 277.68-13.55 275.08-14.15L275.08-14.15Q271.08-15.1 268.53-16.05 265.98-17 264.16-19.1 262.33-21.2 262.33-24.7L262.33-24.7Q262.33-27.75 263.98-30.23 265.63-32.7 268.96-34.15 272.28-35.6 277.08-35.6L277.08-35.6Q280.43-35.6 283.63-34.8 286.83-34 289.23-32.5L289.23-32.5 286.73-26.35Q281.88-29.1 277.03-29.1L277.03-29.1Q273.63-29.1 272.01-28 270.38-26.9 270.38-25.1L270.38-25.1Q270.38-23.3 272.26-22.43 274.13-21.55 277.98-20.7L277.98-20.7Q281.98-19.75 284.53-18.8 287.08-17.85 288.91-15.8 290.73-13.75 290.73-10.25L290.73-10.25Q290.73-7.25 289.06-4.78 287.38-2.3 284.03-0.85 280.68 0.6 275.88 0.6L275.88 0.6Z"
                                                                                        opacity="1"
                                                                                        transform="matrix(1,0,0,1,0,0)"
                                                                                        fill="black"
                                                                                        class="wordmark-text-0"
                                                                                        id="SvgjsPath1942"></path>
                                                                                </svg>
                                                                            </g>
                                                                        </svg>
                                                                    </g>
                                                                </svg>
                                                            </g>
                                                        </svg>
                                                    </g>
                                                    <g>
                                                        <svg viewBox="0 0 59.56586647327801 59.49504927651633"
                                                             height="59.49504927651633" width="59.56586647327801">
                                                            <g>
                                                                <svg xmlns="http://www.w3.org/2000/svg"
                                                                     xmlns:xlink="http://www.w3.org/1999/xlink"
                                                                     version="1.1" x="0" y="0"
                                                                     viewBox="5 5.052999942239572 90.00000005776043 89.89300005776043"
                                                                     enable-background="new 0 0 100 100"
                                                                     xml:space="preserve" height="59.49504927651633"
                                                                     width="59.56586647327801" class="icon-icon-0"
                                                                     data-fill-palette-color="accent" id="SvgjsSvg1941"><g fill="black"><path d="M22.749 91.928A3.02 3.02 0 0 1 19.731 94.946H8.018A3.02 3.02 0 0 1 5 91.928V80.215A3.02 3.02 0 0 1 8.018 77.197H19.731A3.02 3.02 0 0 1 22.749 80.215z" fill="black"></path><path
                                                                    d="M95 65.807A8.67 8.67 0 0 1 86.329 74.478H33.946A8.67 8.67 0 0 1 25.275 65.807V13.724A8.67 8.67 0 0 1 33.946 5.053H86.329A8.67 8.67 0 0 1 95 13.724zM84.347 17.733A2.026 2.026 0 0 0 82.321 15.707H37.955A2.026 2.026 0 0 0 35.929 17.733V61.798C35.929 62.917 36.836 63.824 37.955 63.824H82.321A2.026 2.026 0 0 0 84.347 61.798z"
                                                                    fill="black"></path></g></svg>
                                                            </g>
                                                        </svg>
                                                    </g>
                                                </svg>
                                            </g>
                                            <defs>
                                                <mask></mask>
                                            </defs>
                                        </svg>
                                        <rect width="395.5199999999999" height="48.72833932598312" fill="black"
                                              stroke="none" visibility="hidden"></rect>
                                    </g>
                                </mask>
                            </svg>
                            <rect width="395.5199999999999" height="48.72833932598312" fill="black" stroke="none"
                                  visibility="hidden"></rect>
                        </g>
                    </mask>
                    <linearGradient x1="0" x2="1" y1="0.578" y2="0.595" id="ed6e8356-98be-43b5-9965-64141f942c83">
                        <stop stop-color="#6ee2f5" offset="0"></stop>
                        <stop stop-color="#6454f0" offset="1"></stop>
                    </linearGradient>
                    <rect width="395.5199999999999" height="48.72833932598312"
                          fill="url(#ed6e8356-98be-43b5-9965-64141f942c83)"
                          mask="url(#5fd88051-7346-474c-afa6-fb1f6acd9c92)" data-fill-palette-color="accent"></rect>
                </svg>
                <rect width="395.5199999999999" height="48.72833932598312" fill="none" stroke="none"
                      visibility="hidden"></rect>
            </g>
        </svg>
    </g>
</svg>
